<?xml version="1.0" encoding="UTF-8" standalone="no"?>
<!DOCTYPE svg PUBLIC "-//W3C//DTD SVG 1.1//EN"
 "http://www.w3.org/Graphics/SVG/1.1/DTD/svg11.dtd">
<!-- Generated by graphviz version 12.2.1 (20241206.2353)
 -->
<!-- Pages: 1 -->
<svg width="184pt" height="620pt"
 viewBox="0.00 0.00 184.27 620.00" xmlns="http://www.w3.org/2000/svg" xmlns:xlink="http://www.w3.org/1999/xlink">
<g id="graph0" class="graph" transform="scale(1 1) rotate(0) translate(4 616)">
<polygon fill="white" stroke="none" points="-4,4 -4,-616 180.27,-616 180.27,4 -4,4"/>
<!-- 0 -->
<g id="node1" class="node">
<title>0</title>
<ellipse fill="none" stroke="black" cx="88.63" cy="-594" rx="36.48" ry="18"/>
<text text-anchor="middle" x="88.63" y="-589.33" font-family="Times,serif" font-size="14.00">&quot;svr&quot;</text>
</g>
<!-- 1 -->
<g id="node2" class="node">
<title>1</title>
<ellipse fill="none" stroke="black" cx="40.63" cy="-522" rx="38.06" ry="18"/>
<text text-anchor="middle" x="40.63" y="-517.33" font-family="Times,serif" font-size="14.00">&quot;aaa&quot;</text>
</g>
<!-- 0&#45;&gt;1 -->
<g id="edge1" class="edge">
<title>0&#45;&gt;1</title>
<path fill="none" stroke="black" d="M77.26,-576.41C71.64,-568.22 64.73,-558.14 58.43,-548.95"/>
<polygon fill="black" stroke="black" points="61.33,-546.99 52.78,-540.72 55.55,-550.94 61.33,-546.99"/>
</g>
<!-- 2 -->
<g id="node3" class="node">
<title>2</title>
<ellipse fill="none" stroke="black" cx="136.63" cy="-522" rx="39.63" ry="18"/>
<text text-anchor="middle" x="136.63" y="-517.33" font-family="Times,serif" font-size="14.00">&quot;bbb&quot;</text>
</g>
<!-- 0&#45;&gt;2 -->
<g id="edge2" class="edge">
<title>0&#45;&gt;2</title>
<path fill="none" stroke="black" d="M100.01,-576.41C105.63,-568.22 112.54,-558.14 118.84,-548.95"/>
<polygon fill="black" stroke="black" points="121.72,-550.94 124.48,-540.72 115.94,-546.99 121.72,-550.94"/>
</g>
<!-- 3 -->
<g id="node4" class="node">
<title>3</title>
<ellipse fill="none" stroke="black" cx="45.63" cy="-450" rx="31.74" ry="18"/>
<text text-anchor="middle" x="45.63" y="-445.32" font-family="Times,serif" font-size="14.00">&quot;fft&quot;</text>
</g>
<!-- 1&#45;&gt;3 -->
<g id="edge3" class="edge">
<title>1&#45;&gt;3</title>
<path fill="none" stroke="black" d="M41.87,-503.7C42.39,-496.41 43.01,-487.73 43.6,-479.54"/>
<polygon fill="black" stroke="black" points="47.08,-479.84 44.3,-469.61 40.1,-479.34 47.08,-479.84"/>
</g>
<!-- 5 -->
<g id="node6" class="node">
<title>5</title>
<ellipse fill="none" stroke="black" cx="133.63" cy="-450" rx="34.9" ry="18"/>
<text text-anchor="middle" x="133.63" y="-445.32" font-family="Times,serif" font-size="14.00">&quot;tty&quot;</text>
</g>
<!-- 2&#45;&gt;5 -->
<g id="edge5" class="edge">
<title>2&#45;&gt;5</title>
<path fill="none" stroke="black" d="M135.89,-503.7C135.58,-496.41 135.21,-487.73 134.86,-479.54"/>
<polygon fill="black" stroke="black" points="138.36,-479.46 134.43,-469.62 131.36,-479.76 138.36,-479.46"/>
</g>
<!-- 4 -->
<g id="node5" class="node">
<title>4</title>
<ellipse fill="none" stroke="black" cx="87.63" cy="-378" rx="36.48" ry="18"/>
<text text-anchor="middle" x="87.63" y="-373.32" font-family="Times,serif" font-size="14.00">&quot;ccc&quot;</text>
</g>
<!-- 3&#45;&gt;4 -->
<g id="edge4" class="edge">
<title>3&#45;&gt;4</title>
<path fill="none" stroke="black" d="M55.59,-432.41C60.45,-424.3 66.42,-414.35 71.88,-405.25"/>
<polygon fill="black" stroke="black" points="74.83,-407.14 76.97,-396.77 68.83,-403.54 74.83,-407.14"/>
</g>
<!-- 6 -->
<g id="node7" class="node">
<title>6</title>
<ellipse fill="none" stroke="black" cx="39.63" cy="-306" rx="39.63" ry="18"/>
<text text-anchor="middle" x="39.63" y="-301.32" font-family="Times,serif" font-size="14.00">&quot;ddd&quot;</text>
</g>
<!-- 4&#45;&gt;6 -->
<g id="edge7" class="edge">
<title>4&#45;&gt;6</title>
<path fill="none" stroke="black" d="M76.26,-360.41C70.64,-352.22 63.73,-342.14 57.43,-332.95"/>
<polygon fill="black" stroke="black" points="60.33,-330.99 51.78,-324.72 54.55,-334.94 60.33,-330.99"/>
</g>
<!-- 7 -->
<g id="node8" class="node">
<title>7</title>
<ellipse fill="none" stroke="black" cx="135.63" cy="-306" rx="38.06" ry="18"/>
<text text-anchor="middle" x="135.63" y="-301.32" font-family="Times,serif" font-size="14.00">&quot;eee&quot;</text>
</g>
<!-- 4&#45;&gt;7 -->
<g id="edge8" class="edge">
<title>4&#45;&gt;7</title>
<path fill="none" stroke="black" d="M99.01,-360.41C104.63,-352.22 111.54,-342.14 117.84,-332.95"/>
<polygon fill="black" stroke="black" points="120.72,-334.94 123.48,-324.72 114.94,-330.99 120.72,-334.94"/>
</g>
<!-- 5&#45;&gt;4 -->
<g id="edge6" class="edge">
<title>5&#45;&gt;4</title>
<path fill="none" stroke="black" d="M122.73,-432.41C117.35,-424.22 110.73,-414.14 104.69,-404.95"/>
<polygon fill="black" stroke="black" points="107.7,-403.17 99.29,-396.73 101.85,-407.01 107.7,-403.17"/>
</g>
<!-- 8 -->
<g id="node9" class="node">
<title>8</title>
<ellipse fill="none" stroke="black" cx="39.63" cy="-234" rx="39.63" ry="18"/>
<text text-anchor="middle" x="39.63" y="-229.32" font-family="Times,serif" font-size="14.00">&quot;hub&quot;</text>
</g>
<!-- 6&#45;&gt;8 -->
<g id="edge9" class="edge">
<title>6&#45;&gt;8</title>
<path fill="none" stroke="black" d="M39.63,-287.7C39.63,-280.41 39.63,-271.73 39.63,-263.54"/>
<polygon fill="black" stroke="black" points="43.13,-263.62 39.63,-253.62 36.13,-263.62 43.13,-263.62"/>
</g>
<!-- 10 -->
<g id="node11" class="node">
<title>10</title>
<ellipse fill="none" stroke="black" cx="135.63" cy="-234" rx="38.06" ry="18"/>
<text text-anchor="middle" x="135.63" y="-229.32" font-family="Times,serif" font-size="14.00">&quot;dac&quot;</text>
</g>
<!-- 7&#45;&gt;10 -->
<g id="edge11" class="edge">
<title>7&#45;&gt;10</title>
<path fill="none" stroke="black" d="M135.63,-287.7C135.63,-280.41 135.63,-271.73 135.63,-263.54"/>
<polygon fill="black" stroke="black" points="139.13,-263.62 135.63,-253.62 132.13,-263.62 139.13,-263.62"/>
</g>
<!-- 9 -->
<g id="node10" class="node">
<title>9</title>
<ellipse fill="none" stroke="black" cx="87.63" cy="-162" rx="31.22" ry="18"/>
<text text-anchor="middle" x="87.63" y="-157.32" font-family="Times,serif" font-size="14.00">&quot;fff&quot;</text>
</g>
<!-- 8&#45;&gt;9 -->
<g id="edge10" class="edge">
<title>8&#45;&gt;9</title>
<path fill="none" stroke="black" d="M51.01,-216.41C56.77,-208.01 63.89,-197.63 70.31,-188.26"/>
<polygon fill="black" stroke="black" points="73.05,-190.46 75.81,-180.24 67.27,-186.5 73.05,-190.46"/>
</g>
<!-- 11 -->
<g id="node12" class="node">
<title>11</title>
<ellipse fill="none" stroke="black" cx="39.63" cy="-90" rx="39.63" ry="18"/>
<text text-anchor="middle" x="39.63" y="-85.33" font-family="Times,serif" font-size="14.00">&quot;ggg&quot;</text>
</g>
<!-- 9&#45;&gt;11 -->
<g id="edge13" class="edge">
<title>9&#45;&gt;11</title>
<path fill="none" stroke="black" d="M76.5,-144.76C70.83,-136.49 63.79,-126.23 57.39,-116.9"/>
<polygon fill="black" stroke="black" points="60.44,-115.15 51.9,-108.88 54.66,-119.11 60.44,-115.15"/>
</g>
<!-- 12 -->
<g id="node13" class="node">
<title>12</title>
<ellipse fill="none" stroke="black" cx="136.63" cy="-90" rx="39.63" ry="18"/>
<text text-anchor="middle" x="136.63" y="-85.33" font-family="Times,serif" font-size="14.00">&quot;hhh&quot;</text>
</g>
<!-- 9&#45;&gt;12 -->
<g id="edge14" class="edge">
<title>9&#45;&gt;12</title>
<path fill="none" stroke="black" d="M99,-144.76C104.79,-136.49 111.97,-126.23 118.5,-116.9"/>
<polygon fill="black" stroke="black" points="121.25,-119.07 124.12,-108.87 115.52,-115.06 121.25,-119.07"/>
</g>
<!-- 10&#45;&gt;9 -->
<g id="edge12" class="edge">
<title>10&#45;&gt;9</title>
<path fill="none" stroke="black" d="M124.26,-216.41C118.5,-208.01 111.38,-197.63 104.95,-188.26"/>
<polygon fill="black" stroke="black" points="107.99,-186.5 99.45,-180.24 102.22,-190.46 107.99,-186.5"/>
</g>
<!-- 13 -->
<g id="node14" class="node">
<title>13</title>
<ellipse fill="none" stroke="black" cx="87.63" cy="-18" rx="37" ry="18"/>
<text text-anchor="middle" x="87.63" y="-13.32" font-family="Times,serif" font-size="14.00">&quot;out&quot;</text>
</g>
<!-- 11&#45;&gt;13 -->
<g id="edge15" class="edge">
<title>11&#45;&gt;13</title>
<path fill="none" stroke="black" d="M51.01,-72.41C56.63,-64.22 63.54,-54.14 69.84,-44.95"/>
<polygon fill="black" stroke="black" points="72.72,-46.94 75.48,-36.72 66.94,-42.99 72.72,-46.94"/>
</g>
<!-- 12&#45;&gt;13 -->
<g id="edge16" class="edge">
<title>12&#45;&gt;13</title>
<path fill="none" stroke="black" d="M125.02,-72.41C119.22,-64.13 112.08,-53.92 105.6,-44.66"/>
<polygon fill="black" stroke="black" points="108.63,-42.9 100.03,-36.71 102.9,-46.91 108.63,-42.9"/>
</g>
</g>
</svg>
